<mxfile host="app.diagrams.net" modified="2024-06-11T13:33:01.923Z" agent="Mozilla/5.0 (Macintosh; Intel Mac OS X 10.15; rv:126.0) Gecko/20100101 Firefox/126.0" etag="tAa0QpH6i9b2zKt_3m_h" version="24.5.2" type="github">
  <diagram name="Page-1" id="qJbOqH4HMAB-f4o1E8dE">
    <mxGraphModel dx="1242" dy="794" grid="1" gridSize="10" guides="1" tooltips="1" connect="1" arrows="1" fold="1" page="1" pageScale="1" pageWidth="850" pageHeight="1100" math="0" shadow="0">
      <root>
        <mxCell id="0" />
        <mxCell id="1" parent="0" />
        <mxCell id="TJ689ev5E4wnAfPfxY8Y-3" value="" style="edgeStyle=orthogonalEdgeStyle;rounded=0;orthogonalLoop=1;jettySize=auto;html=1;" edge="1" parent="1" source="TJ689ev5E4wnAfPfxY8Y-1" target="TJ689ev5E4wnAfPfxY8Y-2">
          <mxGeometry relative="1" as="geometry" />
        </mxCell>
        <mxCell id="TJ689ev5E4wnAfPfxY8Y-1" value="" style="whiteSpace=wrap;html=1;aspect=fixed;" vertex="1" parent="1">
          <mxGeometry x="100" y="190" width="80" height="80" as="geometry" />
        </mxCell>
        <mxCell id="TJ689ev5E4wnAfPfxY8Y-5" value="" style="edgeStyle=orthogonalEdgeStyle;rounded=0;orthogonalLoop=1;jettySize=auto;html=1;" edge="1" parent="1" source="TJ689ev5E4wnAfPfxY8Y-2" target="TJ689ev5E4wnAfPfxY8Y-4">
          <mxGeometry relative="1" as="geometry" />
        </mxCell>
        <mxCell id="TJ689ev5E4wnAfPfxY8Y-2" value="" style="ellipse;whiteSpace=wrap;html=1;" vertex="1" parent="1">
          <mxGeometry x="260" y="190" width="80" height="80" as="geometry" />
        </mxCell>
        <mxCell id="TJ689ev5E4wnAfPfxY8Y-4" value="" style="whiteSpace=wrap;html=1;" vertex="1" parent="1">
          <mxGeometry x="400" y="200" width="120" height="60" as="geometry" />
        </mxCell>
      </root>
    </mxGraphModel>
  </diagram>
</mxfile>
